<?xml version="1.0"?>
<svg xmlns="http://www.w3.org/2000/svg" version="1.2" baseProfile="tiny" width="800" height="1476" viewBox="0 0 800 1476" stroke-linecap="round" stroke-linejoin="round">
<g id="pacificawhole" fill="#0080ff">
<path d="M 3.74 1473.76 1 1474.23 1.38 1472.16 3.61 1471.62 3.74 1473.76 Z M 12.87 1472.84 12.99 1471.41 16.19 1471.67 16.04 1473.82 12.87 1472.84 Z M 42.59 1469.44 36.5 1470.66 32.35 1473.93 29.61 1474.62 29.61 1470.36 35.51 1468.03 36.31 1466.46 38.7 1465.17 41.75 1465.17 42.89 1466.62 42.59 1469.44 Z M 63.31 1469.15 59.64 1469.41 58.75 1471.2 54.57 1472.14 51.4 1471.31 48.77 1472.56 44.39 1473.03 42.88 1470.62 47.58 1469.78 48.74 1470.5 52.34 1469.66 52.21 1467.44 54.57 1465.86 56.85 1467.63 57.51 1466.37 54.87 1465.1 53.78 1463.2 55.84 1461.16 60.93 1461.1 61.1 1464.17 64.12 1462.16 65.64 1464.28 60.52 1466.9 60.39 1467.58 66.29 1466.27 65.91 1467.85 63.31 1469.15 Z M 67.91 1460.84 70.06 1459.28 72.57 1461.43 68.26 1462.62 67.91 1460.84 Z M 73.76 1462.24 73.78 1459.6 75.67 1459.16 75.88 1461.74 73.76 1462.24 Z M 111.99 1464.96 111.33 1466.59 109.31 1466.01 109.59 1463.58 111.99 1464.96 Z M 41.91 1383.52 39.77 1384.86 40.13 1382.89 41.91 1383.52 Z M 105.32 1343.72 102.37 1344.1 101.24 1345.97 98.03 1342.61 96.22 1342.2 93.25 1338.15 91.92 1337.75 90.22 1335.4 90.28 1332.48 91.58 1332.14 95.11 1333.95 97.5 1332.34 99.44 1332.66 100.69 1331.44 101.81 1332.5 104.34 1332.38 104.41 1333.98 106.55 1334.22 108.15 1336.13 106.91 1342.1 105.32 1343.72 Z M 87.49 1257.58 90.58 1260.14 91.29 1261.75 95.76 1263.88 98.27 1265.7 95.74 1268.2 93.69 1266.78 91.09 1266.51 89.4 1267.42 87.23 1270.02 86.46 1266.65 85.1 1264.07 83.31 1263.19 83.18 1260.77 79.66 1256.51 77.61 1255.63 73.56 1256.74 71.59 1254.62 71.5 1251.82 74.22 1247.59 80.06 1253.16 85.03 1252.1 86.78 1252.97 87.91 1254.99 87.49 1257.58 Z M 157.07 1274.41 155.25 1276.16 155.22 1274.23 157.07 1274.41 Z M 743.88 1401.09 740.03 1394.55 741.18 1387.68 756.23 1395.72 773.06 1401.54 783.45 1410.19 783.52 1417.69 799 1429.7 789.64 1439.79 772.8 1444.61 761 1452.18 754.54 1462.83 741.16 1457.9 739.07 1452.92 740.79 1440.12 731.26 1418.31 738.62 1411.1 743.88 1401.09 Z M 714.1 1369.95 710.57 1368.39 709.69 1358.4 700.61 1356.21 697.1 1350.58 702.96 1344.34 709.1 1352.15 717.01 1348.71 734.32 1357.73 731.7 1365.86 714.1 1369.95 Z M 664.35 1339.86 668.18 1333.32 681.92 1334 676.63 1339.92 664.35 1339.86 Z M 630.44 1305.89 636.15 1319.37 633.16 1327.15 621.76 1328.29 614.34 1312.28 621.05 1312.04 630.44 1305.89 Z M 536.59 1278.56 550.32 1274.46 556.41 1275.19 559.2 1281.18 557.31 1289.58 551.1 1294.78 534.36 1287.88 536.59 1278.56 Z M 116.69 1457.58 116.08 1455.42 118.46 1454.88 118.32 1456.75 116.69 1457.58 Z M 146.33 1458.67 141.97 1461.63 144.8 1456.38 145.93 1457.18 147.88 1454.35 146.33 1458.67 Z M 136.59 1451.35 137.49 1450.23 140.7 1451.34 142.91 1451.76 142.41 1454.03 139.71 1456.11 138.09 1454.02 136.53 1455.37 136.59 1451.35 Z M 200.33 1448.53 202.18 1448.98 201.03 1453.29 197.97 1452.34 197.64 1450.78 200.33 1448.53 Z M 214.78 1435.59 211.92 1439.63 211.23 1438.85 214.78 1435.59 Z M 434.27 1413.53 430.5 1409.86 431.13 1408.52 430.25 1409.91 428.07 1409.49 426.31 1406.86 423.63 1405.34 421.14 1401.64 418.57 1400.21 418.1 1396.85 419.4 1395.43 419.36 1392.48 420.67 1393.54 423.99 1393.05 425.8 1390.81 429.4 1392.73 428.25 1395.81 429.05 1396.72 430.01 1393.33 433.99 1393.61 436.56 1395.47 436.19 1399.83 437.22 1399.98 439.62 1405.2 436.85 1406.6 430.55 1403.21 431.57 1407.57 432.7 1405.16 434.38 1406.62 437.28 1407.46 439.71 1407.21 440.45 1410.51 445.04 1420.86 446.96 1430.09 447.08 1432.56 445.22 1431.52 439.07 1423.15 435.85 1420.93 436.35 1418.58 434.27 1413.53 Z M 429.66 1413.82 428.74 1411.03 430.34 1410.72 432.73 1414.18 432.5 1416.96 430.06 1418.01 429.66 1413.82 Z M 228.25 1412.97 229.37 1411.43 229.74 1407.83 231.69 1409.63 232.24 1407.33 233.97 1408.87 236.17 1409.04 237.98 1407.89 240.65 1410.3 240.23 1416.47 243.85 1416.24 241.22 1420.16 236.98 1418.22 238.41 1421.02 237 1423.13 234.83 1421.92 234.45 1426.1 230.91 1426.99 229.64 1428.64 227.63 1426.84 224.99 1431.06 223.18 1431.36 221.1 1433.16 220.85 1428.34 217.96 1430.64 217.98 1429.12 215.73 1427.38 215.98 1423.07 213.85 1421.09 215.66 1416.24 220.49 1413.56 223.24 1414.05 223.28 1416.39 226.74 1413.89 223.89 1413.05 224.05 1410.61 226.59 1409.2 228.21 1410.51 228.25 1412.97 Z M 239.47 1395.82 241.03 1400.38 242.7 1398.98 245.57 1401.62 245.36 1405 240.88 1405.17 238.82 1406.55 235.59 1407.01 235.46 1407.94 231.71 1406.24 234.89 1400.99 237.41 1400.71 239.47 1395.82 Z M 299.15 1361.14 300.49 1362.65 296.11 1368.08 295.78 1370.18 292.18 1371.6 292.93 1368.33 296.78 1364.91 299.15 1361.14 Z M 294.84 1359.08 293.37 1363.65 291.3 1362.13 293.01 1356.86 295.38 1354.63 294.84 1359.08 Z M 306.29 1149.5 308.05 1151.18 311.23 1153.04 315.43 1153.3 316.52 1152.08 319.26 1151.22 320.35 1149.64 323.34 1149.21 323.37 1150.26 325.11 1149.55 328.91 1150.89 331.64 1153.35 334.1 1154.42 334.73 1155.53 336.91 1155.56 339.15 1157.32 339.68 1158.56 340.82 1157.38 342.43 1158.03 363.85 1356.57 368.88 1357.77 369.29 1355.84 374.68 1357.9 377.27 1354.16 383.51 1352.97 383.15 1358.81 385.02 1360.56 388.89 1361.91 390.13 1364.8 402.61 1374.24 405.46 1381 407.08 1378.72 411.2 1374.59 413.8 1374.01 414.58 1371.26 413.78 1367.49 415.63 1367.15 415.48 1363.73 418.61 1362.32 422.93 1358.52 428.65 1362.51 428.79 1365.59 430.55 1368.33 433.41 1368.46 437.77 1372.2 437.81 1373.51 439.9 1375.57 444.88 1377.36 454.8 1387.68 456.61 1390.62 459.63 1393.26 464.69 1399.49 469.55 1404.66 468.88 1407.47 472.65 1407.49 472.7 1411.32 475.96 1412.07 477.38 1416.15 480.23 1415.18 486.93 1418 490.62 1417.86 492.97 1419.39 494.86 1419.47 495.92 1421.35 499.75 1420.89 501.57 1423.03 501.17 1428.1 502.49 1431.83 505.91 1437.63 505.08 1439.55 503.85 1446.04 500.85 1451.32 499.11 1449.51 497.74 1450.6 495.5 1446.63 495.34 1444.75 493.49 1442.96 495.58 1440 494.6 1439.42 492.66 1442.94 490.71 1441.54 489.31 1442.98 483.29 1439.73 483.68 1434.35 481.06 1436.82 481.56 1439.33 478.65 1438.02 477.56 1435.77 478.56 1432.77 477.41 1430.3 475.67 1433.01 472.26 1428.93 471.1 1430.17 469.29 1426.53 470.89 1423.52 473.01 1423 471.64 1420.1 471.79 1415.87 470.08 1416.4 465.68 1413.87 462.19 1410.39 455.62 1408.79 453.87 1400.46 451.76 1399.86 451.42 1396.35 449.29 1395.87 445.47 1391.93 444.17 1389.7 439.17 1389.93 432.61 1384.84 427.5 1370.85 427.1 1374.38 428.16 1377.27 431.41 1382.58 431.06 1383.6 433.43 1388.01 433.75 1391.16 431.52 1390.89 429.18 1387.78 426.86 1387.64 423.94 1389.14 423.07 1384.2 420.41 1380.41 418.93 1381.99 411.38 1378.82 411.01 1380.19 414.97 1380.93 418.48 1383.86 419.62 1383.77 420.49 1386.46 422.57 1389.4 419.14 1391.92 416.72 1391.17 417.17 1394.05 413.91 1392.37 412.67 1390.93 410.88 1391.23 405.24 1387.9 401.03 1384.79 400.33 1382.65 397.83 1379.73 391.96 1378.24 388.56 1376.24 382.86 1374.19 379.02 1371.98 378.94 1369.04 380.04 1369.84 380.96 1367.83 379.26 1363.81 380.4 1361.3 379.57 1360.35 377.56 1365.09 372.48 1368.66 365.88 1368.35 360.16 1366.24 359.72 1364.17 357.23 1364.89 354.39 1363.63 348.23 1362.77 344.72 1362.93 336.92 1364.68 334.15 1365.68 330.4 1362.86 325.91 1361.7 324.44 1359.9 323.77 1356.77 320.76 1357.14 319.86 1359.99 314.35 1356.46 313.44 1354.85 308.01 1358.05 305.41 1361.74 304.2 1358.37 305.3 1356.48 306.9 1356.91 312.06 1354.31 311.32 1352.46 308.92 1353.46 307.89 1351.03 305.63 1350.73 303.25 1344.57 302.44 1346.11 299.32 1346.98 298.3 1346.17 297.25 1348.17 293.31 1347.5 293.15 1349.72 290.51 1350.31 289.27 1349.49 290.17 1345.51 289.05 1345.62 287.24 1349.83 289.72 1351.25 289.94 1354.29 291.47 1357.57 290.56 1361.08 288.56 1359.9 287.98 1361.66 289.93 1362.36 291.02 1367.04 288.18 1367.97 286.63 1367.03 284.13 1368.3 282.87 1367.23 279.57 1367.3 279.72 1365.55 278.14 1366.69 277.23 1368.9 275.88 1366.88 274.08 1369.65 274.8 1370.95 272.32 1372.53 270.1 1372.7 269.16 1374.89 266.69 1376.8 265.08 1376.04 263.17 1378.31 261.71 1378.13 258.43 1382.78 255.11 1382.97 254.12 1381.4 251.97 1383.86 247.95 1381.64 249.11 1378.08 251.88 1376.95 253.63 1377.28 254.23 1375.91 257.53 1373.26 257.76 1370.93 253.46 1373.87 250.13 1371.81 249.8 1370.5 251.85 1365.23 254.99 1361.54 255.61 1358.41 256.5 1357.87 257.01 1354.5 255.73 1350.68 259.35 1349.45 266.3 1344.35 267.85 1346.52 269.91 1347.17 273.05 1345.04 269.74 1342.01 268.48 1339.74 265.8 1339.88 263.96 1338.76 263.37 1339.67 260.13 1341.05 258.55 1343.91 255.33 1344.44 251.83 1347.65 251.36 1349.85 248.76 1350.86 248.04 1353.28 246.12 1354.68 244.98 1358.95 241.24 1361.5 242.8 1363.84 241.13 1367 237.73 1367.33 237.12 1371.51 233.85 1372.77 233.01 1370.94 231.16 1374.07 229.28 1374.03 229.43 1376.39 225.14 1377.4 223.71 1383.72 228.47 1384.51 232.12 1386.59 233.02 1388.77 231.18 1392.02 228.43 1393.89 226.01 1393.79 225.6 1395.63 223.98 1396.19 224.48 1398.58 222.52 1401.91 218.68 1404.82 216.67 1404.62 214.59 1405.58 212.73 1405.14 211.12 1406.26 211.36 1408.05 208.5 1408.67 207.66 1411.16 205.94 1409.32 203.27 1414.05 199.79 1413.27 199.71 1415.97 197.69 1415.01 196.06 1415.98 195.6 1419.56 192.5 1424.8 188.59 1424.97 185.1 1427.07 184.4 1428.39 182.67 1426.14 178.49 1430.94 177.77 1429.3 175.81 1429.47 174.91 1432.4 172.76 1433.24 170.49 1432.41 168.17 1435.1 171.27 1436.54 166.69 1442.64 156.18 1443.1 152.31 1448.43 151.82 1447.04 152.87 1443.45 150.99 1442.52 148.23 1443.43 147.57 1444.84 143.18 1446.49 140.98 1448.9 140.84 1446.86 139.36 1448.94 137.33 1447 132.28 1449.65 129.07 1448.86 130.09 1446.23 129.23 1443.32 127.49 1445.2 127.13 1447.5 121.29 1453.49 120.17 1451.46 119.14 1453.96 116.25 1452.84 116.72 1448.66 115.12 1447.34 114.13 1448.67 115.34 1450.85 113.91 1453.5 111.16 1454.42 110.08 1450.83 107.93 1450.08 107.25 1451.23 109.03 1453.56 104.29 1455.54 106.85 1456.98 106.59 1458.35 104.55 1456.79 100.82 1458.75 94.89 1457.16 91.49 1458.21 90.88 1459.49 87.07 1460.18 84.72 1458.97 84.88 1454.93 87.68 1454.35 90.77 1450.24 93.26 1450.76 99.34 1449.07 103.64 1450 104.55 1453.33 106.3 1451.48 106.63 1448.93 109.36 1448.39 112.01 1449.01 116.81 1444.39 121.81 1440.4 127.86 1437.2 134.25 1436.53 136.55 1437.95 139.22 1437.18 139.5 1439.13 137.74 1440.92 138.9 1442.81 139.84 1440.39 142.9 1440.75 143.42 1442.51 145.17 1443.44 145.6 1441.51 142.87 1439.21 142.83 1438.02 145.91 1433.04 149.21 1430.47 153.42 1428.18 159.68 1426.58 164.53 1423.52 166.3 1425.24 168.03 1424.93 167.74 1422.4 168.61 1420.19 172.57 1415.87 177.38 1413.45 181.46 1409.82 181.62 1407.49 186.77 1391.5 191.58 1387.7 191.59 1384.17 180.88 1387.66 177.82 1386.58 177.38 1384.39 175.76 1383.17 175.55 1380.77 173.78 1381.55 172.18 1384.95 173.15 1389.73 170.73 1391.34 169 1390.33 166.67 1382.58 164.89 1378.58 163.66 1378.36 162.35 1380.85 161.21 1381.11 160.03 1378.64 158.15 1377.93 157.95 1374.2 151.43 1377.09 145.69 1378.9 144.94 1380.42 140.36 1381.96 138.83 1379.36 141.19 1377.24 141.83 1371.16 141.86 1364.59 145.07 1362.53 144.03 1356.81 142.8 1353.43 142.29 1348.76 140.51 1346.44 139.1 1350.08 136.27 1350.28 131.48 1351.68 126.15 1351.48 123.44 1350.56 121.39 1348.72 121.94 1345.36 120.19 1343.83 118.19 1338.48 115.78 1336.87 114.03 1331.07 116.72 1329.37 118.28 1325.3 116.46 1325.78 116.95 1323.13 118.28 1321.18 116.81 1318.72 116.04 1320.7 113.83 1319.24 114.48 1315.65 112.74 1314.68 112.39 1312.03 113.27 1309.11 111.04 1309.94 111.52 1307.03 113.98 1307 113.04 1303.32 116.35 1304.01 117.42 1300.18 118.93 1297.8 127.13 1291.17 129.02 1289.01 129.77 1289.69 130.19 1286.04 134 1280.62 136.54 1278.74 140.37 1278.62 142.89 1280.34 145.91 1284.93 148.56 1285.08 152.89 1282.35 157.68 1277.79 159.62 1277.61 159.77 1279.09 164.11 1280.02 168.18 1279.67 172.73 1274.73 173 1273.35 172.37 1267.72 172.8 1264.58 170.88 1260.72 170.51 1257.64 172.97 1258.99 175.93 1257.07 176.53 1254.8 174.21 1249.91 171.17 1252.75 169.08 1251.71 166.61 1253.1 164.15 1253.04 163.29 1254.18 160.18 1255.4 158.65 1258.3 157 1259.24 157.21 1255.44 155.75 1254.26 153.92 1256.83 153.57 1255.3 151.02 1252.52 144.79 1251.08 139.78 1252.2 138 1252.09 134.77 1249.76 128.42 1246.28 127.02 1244.54 126.81 1242.27 128.24 1239.64 126.54 1236.58 127.76 1234.13 129.65 1233.21 130.14 1229.82 127.78 1229.12 126.11 1227.65 122.55 1225.83 121.1 1223.54 118.61 1220.91 119.02 1218.7 124.56 1217.37 131.84 1214.44 136.75 1212.83 138.64 1215.07 140.93 1216.09 142.1 1213.98 140.76 1213.24 141.16 1211.29 147.7 1209.69 154.69 1208.99 158.18 1209.63 159.86 1210.89 158.03 1214.06 157.79 1216.53 156.65 1218.06 157.2 1221.09 159.58 1221.19 162.34 1222.34 165.81 1222.55 166.53 1223.79 168.68 1224.52 170.83 1223.92 173.1 1225.61 176.5 1221.55 178.28 1221.68 179.28 1222.84 180.41 1220.32 177.36 1218.38 173.97 1218.73 175.03 1215.36 173.36 1211.16 170.94 1209.42 170.89 1205.93 173.15 1205.6 175.08 1209.51 174.01 1212.03 174.87 1214.37 177.19 1217.38 178.4 1215 175.88 1211 178.53 1205.34 177.65 1204.08 174.25 1204.65 171.1 1203.58 170.86 1202.44 168.99 1203.09 162.89 1198.98 163.4 1196.34 162.85 1190.05 161.81 1187.5 159.77 1185.04 156.02 1178.73 154.24 1176.19 152.07 1175.1 149.63 1170.76 146.89 1167.9 146.92 1167.18 149.68 1166.89 151.69 1164.06 153.57 1157.81 159.97 1160.08 168.28 1160.7 170.63 1160.09 174.67 1157.73 178.92 1153.59 180.7 1148.87 182.98 1144.97 186.43 1142.06 188.14 1139.71 192.3 1136.22 192.56 1137.46 195.18 1138.37 199.55 1137.01 202.45 1135.21 209.6 1129.23 211.85 1129.28 211.9 1130.35 214.27 1129.93 216.43 1130.53 220.9 1130.3 225.59 1127.84 230.65 1122 232.51 1120.85 232.65 1122.04 238.71 1125.47 239.02 1127.38 236.51 1129.53 235.47 1129.52 235.11 1132.75 238.51 1132.1 238.9 1130.4 240.56 1128.95 240.95 1129.93 242.44 1126.36 245.3 1130.04 244.51 1132.52 246.46 1133.42 247.5 1135.03 249.48 1132.77 252.58 1132.93 254.4 1132.26 258.83 1133.41 261.06 1134.49 259.61 1139.4 263.79 1140.94 264.02 1142.24 268.08 1144.66 268.17 1143.62 271.23 1142.37 274.1 1142.59 274.1 1143.76 275.78 1143.93 277.58 1142.36 280.46 1142.2 282.47 1142.94 285.22 1144.72 286.51 1144.39 288.33 1146.84 289.39 1145.92 291.12 1146.61 292.38 1148.12 293.13 1149.05 296.89 1149.95 298.86 1149.34 301.58 1149.28 304.57 1150.02 306.29 1149.5 Z M 265.98 982.47 214.28 976.24 210.31 967.6 212.7 955.89 212.27 941.28 207.9 929.95 196.57 913.12 181.09 896.21 176.76 898.74 170.21 894.9 172.54 889.63 167.23 876.37 155.84 876.19 138.83 863.23 137.76 855.82 127.11 844.37 112.58 840.99 101.59 834.25 86.03 831.81 80.02 822.4 85.87 807.32 83.8 804.16 88.44 793.65 78.83 782.27 81.36 770.87 77.12 769.08 72.42 757.35 67.87 753.82 67.34 747.14 56.63 719.64 50.51 710.73 53.84 692.32 56.78 694.79 62.87 685.01 59.36 673.54 51.36 672.61 43.82 660.95 42.23 652.95 44.85 646.47 42.38 636.24 46.56 621.67 54.6 623.96 57.09 602.67 52.96 603.79 49.38 613.61 40.28 613.29 32.35 602.77 34.51 589.25 30.97 577.03 24.2 568.12 21.7 559.47 13.41 541.5 16.76 537.89 16.54 517.7 22.16 508.18 23.14 491.66 16.99 473.3 9.12 461.64 10.14 451.05 27.94 430.1 32.45 422.57 32.36 415.62 41.23 400.18 42.48 384.08 39.13 379.1 44.6 367.58 40.78 359.49 43.17 340.77 47.63 328.63 45.13 317.31 51.85 309.5 59.23 295.64 69.89 281.8 76.72 268.76 95.21 223.5 96.49 217 106.51 197.76 116.53 170.02 119.15 153.81 123.84 145.1 141.51 141.6 135.26 137.45 128.64 139.04 122.8 132.05 126.52 125.02 132.69 122.64 128.46 108.96 132.33 77.87 130.45 73.05 132.78 50.97 127.95 40.69 129.89 23.72 137.24 14.3 143.14 21.65 156.21 33.11 166.63 35.93 176.17 41.7 186.7 41.89 189.97 48.03 198.8 50.28 201.47 63.99 206.22 64.38 202.41 80.76 200.89 96.19 205.03 95.75 204.91 82.12 209.43 70.15 219.13 59.33 215.68 52.86 217.83 43.79 216.99 32.9 220.85 26.26 220.82 17.23 215.32 14.36 211.69 6.54 214.82 1 426.1 55.27 462.8 63.33 450.66 120.05 459.63 138.16 456.63 153.44 462.57 161.68 469.83 165.73 469.85 169.87 481.13 187.76 481.59 194.22 490.6 202.07 490.3 205.83 501.61 207.74 491.99 227.5 488.32 240.48 490.71 249.87 482.41 254.61 484.05 261 480.9 266.76 488.18 274.26 499.4 268.46 504.46 263.06 510.53 269.95 508.57 274.36 510.43 285.87 514.81 298.49 518.86 303.39 516.63 314.14 520.37 319.62 528.58 321.76 530.54 340.94 534.61 344.86 539.74 340.36 552.23 342.89 562.34 339.55 567.36 343.28 577.26 342.41 578.72 345.84 587.24 345.03 598.42 334.79 603.19 345.74 609.52 352.79 587.1 493.24 578 550.23 662.89 562.87 647.87 669.8 640.93 718.26 640.79 724.62 631.59 791.26 586.73 1114.07 488.94 1099.49 436.16 1069.09 322.43 1001.87 329.34 990.12 265.98 982.47 Z M 206.95 48.75 202.27 42.87 205.39 38.93 210.94 37.94 206.95 48.75 Z M 204.5 14.78 207.44 24.99 203.67 31.97 195.78 27.41 198.39 20.74 204.5 14.78 Z M 487.41 1442.51 490.44 1443.89 490.96 1447.47 487.81 1447.81 487.89 1445.99 487.41 1442.51 Z M 486.4 1442.29 486.09 1446.21 484.81 1445.21 483.59 1440.37 486.4 1442.29 Z M 460.65 1442.96 463.2 1443.82 464.36 1441.77 466.07 1442.21 465.17 1445.64 462.45 1445.3 460.65 1442.96 Z M 476.31 1437.28 477.22 1440.16 479.99 1442.59 480.89 1445.12 482.05 1444 483.13 1445.88 485.4 1453.81 485 1455.82 481.59 1456.31 479.69 1452.47 478.6 1453.1 475.46 1450.63 474.99 1451.81 472.74 1451.28 473.78 1454.25 475.48 1453.01 476.99 1453.84 477.4 1458.16 475.01 1458.25 470.3 1453.75 468.7 1451.26 468.24 1448.39 465.58 1449.24 465.09 1447.09 467.1 1446.39 468.72 1443.99 467.03 1440.8 464.44 1440.68 462.82 1435.33 461.32 1432.81 460.1 1435.11 458.78 1432.18 460.16 1430.33 457.98 1427.12 458.62 1426.14 463.73 1425.69 465.91 1429.36 471.95 1432.59 474.31 1434.89 474.99 1437.12 476.31 1437.28 Z M 465.28 1422.7 467.92 1421.6 469.29 1422.11 469.65 1425.25 467.36 1426.51 464.72 1425.1 465.28 1422.7 Z M 449.64 1415.01 454.92 1417.78 456.16 1421.32 454.7 1422.12 454.6 1426.44 455.98 1427.32 455.64 1432.4 453.65 1431.76 454.04 1434.77 452.58 1433.54 450.64 1427.89 452.06 1424.73 450.15 1423.47 447.74 1420.41 447 1417.83 448.1 1416.29 449.79 1417.24 449.64 1415.01 Z M 468.19 1416.98 468.39 1419.45 466.82 1421.14 464.13 1421.18 462.66 1423.07 459.96 1422.74 457.41 1424.27 455.76 1419.51 455.29 1416.27 453.23 1416.61 452.39 1414.88 450.34 1413.18 451.89 1411.41 458.41 1411.98 461.09 1411.24 463.91 1414.65 468.19 1416.98 Z M 445.96 1398.27 448.96 1400.72 450.84 1405.8 448.76 1407.68 448.36 1409.68 445.28 1414.27 444.08 1414.4 442.76 1410.51 443.06 1407.95 441.95 1404.48 439.71 1400.42 439.48 1398.09 437.49 1392.66 435.56 1390.56 434.3 1386.52 437.72 1389.87 441.76 1390.7 443.86 1390.01 444.09 1391.63 448.45 1396.65 446.08 1396.21 445.96 1398.27 Z" fill-rule="evenodd"/>
</g>
</svg>